<svg xmlns="http://www.w3.org/2000/svg" xmlns:xlink="http://www.w3.org/1999/xlink" width="50px" height="50px" viewBox="0 0 50 49" version="1.1">
<g id="surface1">

<path style="fill-rule: evenodd; fill: rgb(74, 125, 41); fill-opacity: 1; opacity: 1;" d="M 17.957031 37.804688 C 17.628906 37.652344 17.363281 36.945312 17.273438 36.726562 C 17.214844 36.578125 17.265625 36.71875 17.214844 36.570312 C 17.09375 36.207031 16.925781 35.390625 16.902344 35.046875 C 16.796875 33.578125 16.871094 33.351562 16.835938 31.925781 C 16.824219 31.410156 16.761719 31.386719 16.976562 31.101562 C 17.167969 30.847656 17.550781 30.378906 17.902344 30.273438 C 17.847656 30.660156 17.914062 31.515625 17.910156 32.101562 C 17.90625 32.789062 17.90625 37.367188 17.957031 37.804688 Z M 21.992188 41.167969 C 21.710938 41.203125 21.519531 41.066406 21.304688 40.90625 C 21.046875 40.707031 21.238281 38.195312 21.222656 37.746094 C 21.21875 37.566406 21.210938 37.570312 21.179688 37.402344 L 21.203125 31.785156 C 21.21875 31.226562 21.121094 28.835938 21.261719 28.539062 C 22.023438 28.386719 22.125 27.933594 22.035156 30.476562 L 22.039062 32.644531 C 22.066406 34.078125 21.960938 36.535156 22.046875 37.671875 C 22.085938 38.207031 22.070312 40.921875 21.992188 41.167969 Z M 28.953125 36.179688 C 28.941406 36.636719 29 37.460938 28.957031 38.007812 C 28.902344 38.792969 28.941406 39.347656 28.960938 40.136719 C 28.992188 41.632812 29.199219 41.484375 27.90625 41.777344 L 27.363281 41.886719 C 27.082031 41.929688 27.128906 41.914062 26.921875 41.941406 C 26.375 42.011719 26.015625 42.039062 25.375 42.003906 C 24.828125 41.972656 24.003906 41.953125 23.5 41.667969 C 23.414062 41.1875 23.46875 40.878906 23.480469 40.390625 C 23.550781 38.039062 23.484375 35.574219 23.484375 33.1875 C 23.484375 33.175781 23.484375 33.148438 23.484375 33.132812 L 23.480469 29.652344 C 23.453125 27.972656 23.25 28.1875 24.441406 28.011719 L 25.570312 27.984375 C 26.269531 27.949219 27.511719 28.050781 28.421875 28.160156 C 29.371094 28.273438 28.824219 29.296875 28.96875 30.011719 C 28.617188 29.839844 28.222656 29.46875 27.828125 29.476562 C 28.070312 29.675781 28.183594 29.632812 28.460938 29.847656 C 28.664062 30.011719 28.859375 30.148438 29.109375 30.320312 C 29.382812 30.503906 29.472656 30.523438 29.773438 30.757812 C 29.953125 30.902344 29.855469 30.847656 30.078125 30.988281 C 30.183594 31.054688 30.339844 31.136719 30.425781 31.199219 L 31.753906 32.074219 C 32.269531 32.398438 32.574219 32.816406 33.003906 32.859375 C 32.910156 32.683594 32.414062 32.441406 32.265625 32.210938 C 32.121094 31.984375 32.253906 29.507812 32.308594 29.371094 C 32.472656 29.46875 32.867188 29.601562 33.039062 29.722656 C 33.5 30.042969 34.554688 30.875 34.714844 31.296875 C 34.851562 31.660156 34.753906 33.671875 34.738281 34.277344 C 34.71875 35.101562 34.5625 36.359375 33.996094 37.351562 C 33.667969 37.925781 32.867188 39.253906 32.1875 39.550781 C 32.335938 39.179688 32.207031 39.554688 32.234375 39.3125 C 32.339844 38.28125 32.1875 36.21875 32.226562 35.042969 C 32.242188 34.644531 32.351562 34.261719 32.164062 34.058594 L 31.859375 33.703125 C 32.203125 33.707031 32.335938 33.824219 32.542969 33.699219 C 32.242188 33.28125 32.316406 33.757812 32.230469 33.109375 C 32.222656 33.074219 32.222656 32.851562 32.222656 32.828125 C 32.183594 32.5 32.214844 32.671875 32.160156 32.546875 C 31.765625 32.398438 31.539062 32.246094 31.285156 32.074219 L 30.445312 31.515625 C 30.363281 31.464844 30.042969 31.296875 30.023438 31.28125 C 29.78125 31.074219 29.335938 30.742188 28.988281 30.566406 L 28.96875 31.191406 L 28.785156 31.070312 C 28.652344 30.964844 27.035156 30.023438 26.445312 29.886719 C 26.726562 29.925781 27.203125 30.421875 27.527344 30.59375 C 27.816406 30.75 27.601562 30.566406 27.878906 30.804688 C 28.378906 31.234375 28.972656 31.648438 29.539062 31.96875 L 31.476562 33.246094 C 31.738281 33.402344 31.691406 33.292969 31.839844 33.492188 L 31.917969 33.789062 C 31.660156 33.769531 31.3125 33.554688 31.117188 33.414062 C 30.820312 33.195312 30.691406 33.214844 30.445312 32.996094 C 30.074219 32.675781 29.460938 32.226562 28.9375 32.085938 C 28.957031 33.640625 28.992188 34.542969 28.953125 36.179688 Z M 16.320312 28.628906 C 16.230469 30.617188 16.304688 32.78125 16.304688 34.789062 C 16.308594 37.527344 16.988281 39.664062 18.941406 41.367188 C 20.785156 42.96875 23.03125 43.726562 25.753906 43.707031 C 29.179688 43.679688 32.304688 42.371094 34.078125 39.605469 C 35.082031 38.035156 35.3125 36.871094 35.304688 34.695312 C 35.300781 32.671875 35.320312 30.636719 35.300781 28.589844 C 34.816406 28.476562 33.96875 28.011719 33.191406 27.839844 C 28.542969 26.824219 20.222656 26.796875 16.320312 28.628906 " data-index="1"></path>
<path style=" stroke:none;fill-rule:evenodd;fill:rgb(1.960784%,1.960784%,1.960784%);fill-opacity:1;" d="M 16.320312 28.628906 C 20.222656 26.796875 28.542969 26.824219 33.191406 27.839844 C 33.96875 28.011719 34.816406 28.476562 35.300781 28.589844 C 35.320312 30.636719 35.300781 32.671875 35.304688 34.695312 C 35.3125 36.871094 35.082031 38.035156 34.078125 39.605469 C 32.304688 42.371094 29.179688 43.679688 25.753906 43.707031 C 23.03125 43.726562 20.785156 42.96875 18.941406 41.367188 C 16.988281 39.664062 16.308594 37.527344 16.304688 34.789062 C 16.304688 32.78125 16.230469 30.617188 16.320312 28.628906 Z M 31.285156 21.023438 C 31.160156 21.726562 30.355469 22.738281 31.363281 23.296875 C 31.929688 23.609375 32.167969 23.367188 32.578125 23.425781 C 32.816406 23.460938 32.75 23.53125 33.023438 23.660156 C 33.835938 24.039062 34.367188 23.421875 34.800781 23.351562 C 35.386719 23.261719 36.082031 23.386719 36.480469 22.136719 C 36.785156 21.183594 36.386719 21.242188 36.855469 20.84375 L 36.792969 26.328125 C 34.550781 26.386719 32.394531 26.300781 30.179688 26.328125 L 23.714844 26.347656 L 23.414062 26.25 C 23.03125 26.402344 22.558594 26.382812 22.125 26.261719 L 21.933594 26.335938 C 21.714844 26.378906 21.019531 26.332031 20.75 26.332031 C 20.039062 26.332031 17.734375 26.421875 17.4375 26.261719 C 17.105469 26.449219 15.382812 26.410156 14.882812 26.289062 L 14.9375 20.929688 C 15.371094 21.429688 14.882812 22.429688 15.886719 23.078125 C 16.507812 23.476562 16.523438 23.238281 17.003906 23.359375 C 17.3125 23.4375 17.582031 23.714844 18.007812 23.765625 C 18.664062 23.851562 18.652344 23.480469 19.183594 23.441406 C 19.679688 23.40625 19.976562 23.542969 20.421875 23.230469 C 21.238281 22.652344 20.550781 21.679688 20.390625 21.050781 C 20.378906 20.714844 20.375 20.949219 20.480469 20.804688 L 31.195312 20.808594 C 31.304688 20.9375 31.425781 20.613281 31.285156 21.023438 Z M 33.078125 20.015625 L 33.242188 21.359375 C 33.195312 21.996094 33.015625 22.566406 32.632812 22.890625 C 32.167969 23.285156 31.582031 23.140625 31.277344 22.652344 C 31.207031 22.164062 31.558594 21.484375 31.707031 20.996094 L 31.730469 20.8125 L 31.660156 20.09375 C 31.277344 20.308594 31.488281 20.375 30.957031 20.351562 C 31.054688 20.003906 31.207031 19.757812 31.515625 19.589844 C 31.808594 19.128906 32.667969 19.238281 33.082031 19.53125 C 33.179688 19.28125 33.070312 19.21875 33.523438 19.132812 C 34.175781 19.011719 34.5625 19.476562 34.703125 19.488281 C 34.820312 19.5 34.921875 19.355469 35.328125 19.40625 C 36.058594 19.496094 36.429688 20.765625 36.199219 21.625 C 36.074219 22.324219 35.59375 23.195312 34.835938 22.910156 C 35.613281 20.867188 35.136719 21.164062 35.007812 19.925781 C 34.894531 19.992188 34.902344 19.902344 34.8125 20.039062 L 34.945312 21.386719 C 34.945312 22.515625 34.019531 24.058594 32.898438 23.074219 C 34.007812 21.734375 33.351562 20.59375 33.292969 19.984375 Z M 23.613281 19.292969 C 24.132812 17.613281 27.902344 17.773438 28.023438 19.394531 C 28.28125 19.714844 28.148438 20.070312 28.027344 20.5 L 23.609375 20.496094 C 23.433594 20.050781 23.382812 19.714844 23.613281 19.292969 Z M 15.484375 21.621094 C 15.25 20.75 15.613281 19.507812 16.34375 19.414062 C 16.816406 19.355469 16.742188 19.511719 17.035156 19.449219 C 17.1875 19.414062 17.71875 18.941406 18.304688 19.175781 C 18.644531 19.308594 18.5 19.234375 18.589844 19.535156 C 19 19.261719 19.875 19.117188 20.152344 19.574219 C 20.429688 19.753906 20.648438 20.019531 20.667969 20.371094 C 20.265625 20.347656 20.347656 20.324219 20.117188 20.109375 C 20.113281 20.117188 20.015625 20.265625 19.996094 20.289062 L 19.898438 20.417969 L 19.984375 21.363281 C 20.445312 21.804688 20.449219 22.34375 20.34375 22.894531 C 19.535156 23.175781 18.785156 23.265625 18.519531 21.855469 C 18.433594 21.402344 18.335938 20.792969 18.527344 20.324219 C 18.523438 19.960938 18.597656 20.222656 18.449219 20.019531 C 17.800781 21.148438 18.238281 22.304688 18.773438 23.082031 C 17.851562 24.019531 16.890625 22.761719 16.777344 21.785156 C 16.691406 21.167969 16.660156 20.621094 16.917969 20.015625 L 16.6875 19.921875 C 16.597656 20.550781 16.359375 20.710938 16.4375 21.5625 C 16.539062 22.632812 16.886719 22.515625 16.746094 22.972656 C 15.953125 23.035156 15.578125 22.289062 15.484375 21.621094 Z M 28.542969 20.027344 C 29.378906 19.625 28.921875 20.210938 30.070312 19.144531 C 30.117188 19.859375 29.210938 20.355469 28.449219 20.34375 Z M 21.984375 19.539062 C 22.820312 20.203125 23.015625 19.628906 23.234375 20.367188 C 22.484375 20.351562 21.6875 19.882812 21.566406 19.183594 C 21.585938 19.199219 21.617188 19.21875 21.632812 19.230469 Z M 32.144531 18.851562 C 32.222656 18.777344 32.089844 18.570312 32.472656 18.851562 C 32.414062 18.878906 32.464844 18.894531 32.308594 18.902344 C 32.113281 18.914062 32.199219 18.875 32.144531 18.851562 Z M 31.808594 18.917969 C 31.785156 18.914062 31.761719 18.890625 31.753906 18.882812 L 31.558594 18.777344 C 31.554688 18.777344 31.53125 18.78125 31.527344 18.78125 C 31.496094 18.785156 31.371094 18.929688 31.089844 18.796875 C 30.773438 18.648438 30.789062 18.292969 30.863281 17.921875 C 30.980469 17.3125 31.09375 16.011719 31.226562 15.859375 C 31.921875 16.695312 31.863281 17.617188 31.808594 18.917969 Z M 19.847656 18.921875 C 19.703125 17.742188 19.710938 16.445312 20.449219 15.816406 C 20.542969 16.308594 20.484375 16.738281 20.609375 17.28125 C 20.730469 17.800781 20.804688 18.132812 20.65625 18.675781 C 20.421875 18.746094 20.300781 18.730469 20.089844 18.652344 C 20.125 18.832031 20.203125 18.996094 20.199219 19.027344 Z M 32.484375 16.933594 C 32.632812 16.734375 32.578125 16.757812 32.855469 16.632812 C 33.542969 16.914062 33.664062 17.640625 33.585938 18.3125 C 33.527344 18.855469 33.386719 18.703125 33.296875 18.722656 C 33.207031 18.816406 33.390625 18.742188 33.085938 18.910156 C 32.941406 18.984375 32.988281 18.964844 32.765625 18.992188 L 32.253906 18.265625 C 32.457031 18.164062 32.496094 18.074219 32.691406 18.042969 C 33.144531 17.96875 33.136719 18.363281 33.132812 17.992188 C 32.96875 17.734375 32.945312 17.785156 32.644531 17.636719 C 32.492188 17.765625 32.238281 17.878906 32.078125 17.972656 L 32.113281 17.058594 Z M 19.027344 17.632812 C 18.550781 17.828125 18.59375 17.765625 18.414062 18.222656 C 18.808594 18.027344 18.878906 17.894531 19.363281 18.28125 C 19.230469 18.476562 19.03125 18.746094 18.882812 18.992188 C 18.613281 18.960938 18.558594 18.917969 18.375 18.722656 C 18.164062 18.71875 18.371094 18.863281 18.101562 18.679688 C 17.980469 17.734375 17.984375 16.921875 18.816406 16.628906 C 19.074219 16.746094 18.976562 16.707031 19.179688 16.847656 L 19.519531 17.019531 L 19.496094 17.941406 C 19.386719 17.882812 19.375 17.886719 19.234375 17.800781 C 18.992188 17.648438 19.136719 17.742188 19.027344 17.632812 Z M 27.335938 16.367188 C 28.28125 14.660156 30.230469 17.71875 28.449219 19.117188 C 28.183594 19.027344 28.335938 19.164062 28.246094 18.9375 L 27.96875 18.667969 C 28.101562 18.113281 28.210938 18.226562 28.203125 17.464844 L 27.960938 17.316406 C 27.824219 17.082031 27.824219 17.296875 27.914062 16.953125 C 27.496094 16.570312 27.164062 16.933594 27.054688 17.503906 C 27.015625 17.714844 27.03125 17.789062 26.945312 17.933594 C 26.871094 17.792969 26.882812 17.75 26.902344 17.546875 C 26.910156 17.464844 26.949219 17.160156 26.96875 17.050781 C 27.058594 16.609375 27.273438 16.476562 27.285156 16.429688 C 27.292969 16.390625 27.320312 16.386719 27.335938 16.367188 Z M 23.710938 16.980469 L 23.707031 17.304688 L 23.441406 17.492188 C 23.417969 17.933594 23.554688 18.238281 23.695312 18.589844 L 23.359375 19.070312 C 22.113281 19.199219 22.066406 15.019531 24.195312 16.117188 C 24.578125 16.589844 24.777344 17.128906 24.738281 17.957031 L 24.640625 17.75 C 24.632812 17.726562 24.625 17.703125 24.621094 17.675781 C 24.617188 17.671875 24.460938 16.296875 23.710938 16.980469 Z M 27.445312 15.429688 L 27.347656 15.246094 C 27.554688 14.898438 27.921875 14.675781 28.328125 14.636719 C 28.691406 14.601562 29.203125 14.707031 29.328125 15.117188 C 28.433594 14.636719 27.285156 15.109375 27.628906 15.34375 C 28.761719 14.621094 29.449219 15.488281 29.78125 15.621094 L 29.566406 14.726562 C 30 14.910156 30.5625 15.234375 30.773438 15.5 C 30.851562 16.191406 30.902344 17.4375 30.507812 17.925781 C 30.574219 18.585938 30.617188 18.589844 30.835938 19.027344 C 31.324219 19.265625 30.917969 19.582031 30.554688 20.214844 C 30.292969 20.679688 30.625 20.339844 30.195312 20.539062 C 30.421875 19.878906 30.425781 19.988281 30.367188 19.230469 L 30.085938 18.695312 C 29.855469 19.066406 29.316406 19.648438 28.652344 19.621094 L 28.472656 19.707031 C 28.339844 19.113281 28.585938 19.398438 28.953125 19.007812 C 29.546875 18.378906 29.527344 16.757812 28.980469 16.136719 C 27.78125 14.765625 26.621094 16.382812 26.644531 17.820312 L 25.097656 17.84375 C 25.015625 17.75 25.003906 17.898438 25.003906 17.492188 L 24.800781 16.632812 C 24.507812 16.1875 24.367188 15.699219 23.617188 15.667969 C 23.042969 15.640625 22.617188 16.089844 22.441406 16.511719 C 21.683594 18.304688 22.996094 19.230469 23.179688 19.484375 C 23.148438 19.753906 23.148438 19.609375 23.066406 19.714844 C 21.929688 19.492188 22.042969 19.15625 21.464844 18.683594 L 21.222656 19.542969 C 21.214844 20.042969 21.300781 20.121094 21.398438 20.492188 C 21.09375 20.371094 21.132812 20.203125 20.808594 19.707031 C 20.539062 19.292969 20.429688 19.121094 20.84375 18.910156 C 21.121094 18.371094 21.050781 17.796875 20.917969 17.164062 C 20.789062 16.785156 20.734375 15.964844 20.847656 15.589844 C 20.957031 15.234375 21.621094 14.902344 22 14.808594 L 21.8125 15.644531 L 22.503906 15.21875 C 23.691406 14.6875 24.300781 15.683594 24.585938 15.835938 C 24.371094 14.566406 24.007812 14.472656 23.75 14.019531 C 24.9375 13.867188 26.691406 13.511719 27.824219 14.050781 L 27.644531 14.28125 C 27.328125 14.691406 27.0625 15.292969 27.042969 15.867188 Z M 21.214844 14.78125 C 21.015625 13.296875 24.25 12.910156 25.371094 12.882812 C 26.746094 12.855469 28.121094 13.027344 29.355469 13.585938 C 29.761719 13.773438 29.964844 13.917969 29.914062 14.507812 C 29.253906 14.285156 28.617188 13.9375 27.917969 13.753906 C 27.089844 13.53125 26.277344 13.453125 25.371094 13.511719 C 22.953125 13.664062 22.632812 14.292969 21.214844 14.78125 Z M 20.035156 15.5 C 19.621094 14.453125 21.253906 13.371094 22.078125 12.988281 C 23.242188 12.453125 24.492188 12.132812 26.023438 12.148438 C 29.460938 12.191406 32.152344 14.699219 31.597656 15.71875 C 31.496094 14.929688 31.335938 14.683594 30.875 14.277344 C 30.621094 14.050781 29.910156 13.617188 29.515625 13.4375 C 28.453125 12.945312 27.1875 12.699219 25.835938 12.695312 C 24.046875 12.691406 21.972656 13.082031 20.710938 14.1875 C 20.546875 14.332031 20.316406 14.527344 20.179688 14.757812 C 19.921875 15.199219 20.113281 15.246094 20.035156 15.5 Z M 23.757812 12.050781 C 23.199219 12.300781 22.140625 12.570312 21.4375 13.003906 C 21.132812 13.191406 21.070312 13.261719 20.757812 13.40625 L 20.402344 13.695312 C 20.183594 14.125 20.148438 14.050781 19.902344 14.390625 C 19.25 15.289062 20.074219 15.277344 19.632812 16.28125 L 19.503906 16.5625 C 19.496094 16.546875 19.480469 16.609375 19.464844 16.632812 C 17.960938 15.699219 18.699219 12.195312 19.605469 11.640625 C 19.6875 10.878906 21.53125 9.273438 22.101562 8.847656 C 24.726562 6.894531 27.285156 7.035156 29.796875 8.992188 C 30.339844 9.417969 31.898438 11.085938 32.097656 11.851562 C 33.042969 12.710938 33.601562 15.941406 32.148438 16.734375 C 32.046875 16.507812 31.875 16.074219 31.886719 15.890625 C 31.902344 15.605469 32.078125 15.527344 31.933594 15.046875 C 31.765625 14.507812 31.316406 14.25 31.003906 13.691406 L 30.371094 13.191406 C 29.867188 12.980469 29.609375 12.703125 29.164062 12.515625 C 28.730469 12.335938 28.308594 12.226562 27.859375 12.066406 C 27.109375 11.949219 26.539062 11.847656 25.746094 11.863281 C 25.054688 11.875 24.347656 12.054688 23.757812 12.050781 Z M 18.511719 16.226562 C 17.613281 17.074219 17.558594 17.046875 17.632812 18.664062 C 16.9375 18.828125 17.152344 18.875 16.320312 18.9375 C 15.78125 18.972656 15.515625 19.242188 15.292969 19.5625 C 14.996094 20 15.09375 20.183594 14.75 20.566406 C 14.363281 20.992188 14.476562 21.234375 14.476562 21.929688 C 14.472656 22.984375 14.476562 24.042969 14.476562 25.097656 C 14.476562 26.644531 14.207031 26.949219 15.847656 27.015625 C 16.296875 31.613281 14.980469 35.78125 17 39.746094 C 20.488281 46.597656 30.78125 46.894531 34.574219 39.820312 C 36.058594 37.058594 35.746094 33.964844 35.738281 30.53125 C 35.738281 29.503906 35.644531 28.003906 35.765625 27.035156 C 37.652344 26.746094 37.28125 27.492188 37.269531 22.019531 C 37.261719 20.019531 37.074219 20.984375 36.632812 20.226562 C 36.523438 20.039062 36.542969 19.917969 36.386719 19.648438 C 35.664062 18.441406 34.96875 19.292969 34.007812 18.578125 C 34.121094 16.796875 33.730469 16.871094 33.191406 16.226562 C 33.4375 14.726562 33.78125 14.3125 33.078125 12.757812 C 30.304688 6.625 24.433594 5.011719 20.164062 10.027344 C 18.707031 11.738281 17.691406 13.363281 18.511719 16.226562 " data-index="2"></path>
<path style="fill-rule: evenodd; fill: rgb(102, 173, 54); fill-opacity: 1; opacity: 1;" d="M 23.5 41.667969 C 24.003906 41.953125 24.828125 41.972656 25.375 42.003906 C 26.015625 42.039062 26.375 42.011719 26.921875 41.941406 C 27.128906 41.914062 27.082031 41.929688 27.363281 41.886719 L 27.90625 41.777344 C 29.199219 41.484375 28.992188 41.632812 28.960938 40.136719 C 28.941406 39.347656 28.902344 38.792969 28.957031 38.007812 C 29 37.460938 28.941406 36.636719 28.953125 36.179688 C 28.992188 34.542969 28.957031 33.640625 28.9375 32.085938 C 29.460938 32.226562 30.074219 32.675781 30.445312 32.996094 C 30.691406 33.214844 30.820312 33.195312 31.117188 33.414062 C 31.3125 33.554688 31.660156 33.769531 31.917969 33.789062 L 31.839844 33.492188 C 31.691406 33.292969 31.738281 33.402344 31.476562 33.246094 L 29.539062 31.96875 C 28.972656 31.648438 28.378906 31.234375 27.878906 30.804688 C 27.601562 30.566406 27.816406 30.75 27.527344 30.59375 C 27.203125 30.421875 26.726562 29.925781 26.445312 29.886719 C 27.035156 30.023438 28.652344 30.964844 28.785156 31.070312 L 28.96875 31.191406 L 28.988281 30.566406 C 29.335938 30.742188 29.78125 31.074219 30.023438 31.28125 C 30.042969 31.296875 30.363281 31.464844 30.445312 31.515625 L 31.285156 32.074219 C 31.539062 32.246094 31.765625 32.398438 32.160156 32.546875 C 32.214844 32.671875 32.183594 32.5 32.222656 32.828125 C 32.222656 32.851562 32.222656 33.074219 32.230469 33.109375 C 32.316406 33.757812 32.242188 33.28125 32.542969 33.699219 C 32.335938 33.824219 32.203125 33.707031 31.859375 33.703125 L 32.164062 34.058594 C 32.351562 34.261719 32.242188 34.644531 32.226562 35.042969 C 32.1875 36.21875 32.339844 38.28125 32.234375 39.3125 C 32.207031 39.554688 32.335938 39.179688 32.1875 39.550781 C 32.867188 39.253906 33.667969 37.925781 33.996094 37.351562 C 34.5625 36.359375 34.71875 35.101562 34.738281 34.277344 C 34.753906 33.671875 34.851562 31.660156 34.714844 31.296875 C 34.554688 30.875 33.5 30.042969 33.039062 29.722656 C 32.867188 29.601562 32.472656 29.46875 32.308594 29.371094 C 32.253906 29.507812 32.121094 31.984375 32.265625 32.210938 C 32.414062 32.441406 32.910156 32.683594 33.003906 32.859375 C 32.574219 32.816406 32.269531 32.398438 31.753906 32.074219 L 30.425781 31.199219 C 30.339844 31.136719 30.183594 31.054688 30.078125 30.988281 C 29.855469 30.847656 29.953125 30.902344 29.773438 30.757812 C 29.472656 30.523438 29.382812 30.503906 29.109375 30.320312 C 28.859375 30.148438 28.664062 30.011719 28.460938 29.847656 C 28.183594 29.632812 28.070312 29.675781 27.828125 29.476562 C 28.222656 29.46875 28.617188 29.839844 28.96875 30.011719 C 28.824219 29.296875 29.371094 28.273438 28.421875 28.160156 C 27.511719 28.050781 26.269531 27.949219 25.570312 27.984375 L 24.441406 28.011719 C 23.25 28.1875 23.453125 27.972656 23.480469 29.652344 L 23.484375 33.132812 C 23.484375 33.148438 23.484375 33.175781 23.484375 33.1875 C 23.484375 35.574219 23.550781 38.039062 23.480469 40.390625 C 23.46875 40.878906 23.414062 41.1875 23.5 41.667969 " data-index="3"></path>
<path style=" stroke:none;fill-rule:evenodd;fill:rgb(74.901962%,16.078432%,12.941177%);fill-opacity:1;" d="M 19.605469 11.640625 C 19.460938 12.078125 19.089844 12.917969 19.722656 13.519531 C 19.882812 13.671875 20.003906 13.714844 20.230469 13.714844 C 20.257812 13.714844 20.292969 13.707031 20.316406 13.707031 C 20.339844 13.707031 20.375 13.703125 20.402344 13.695312 L 20.757812 13.40625 C 20.90625 13.082031 20.800781 13.246094 21.078125 13.011719 C 21.09375 13 21.113281 12.988281 21.128906 12.976562 C 21.144531 12.964844 21.164062 12.945312 21.179688 12.933594 C 21.421875 12.726562 21.453125 12.605469 21.765625 12.421875 L 22.25 12.160156 C 22.273438 12.144531 22.390625 12.066406 22.414062 12.054688 L 23.527344 11.578125 C 22.820312 7.742188 28.902344 7.859375 28.105469 11.5625 C 28.128906 11.582031 28.15625 11.605469 28.175781 11.617188 L 28.5 11.804688 C 29.621094 12.238281 28.808594 11.804688 29.679688 12.445312 C 29.988281 12.675781 30.113281 12.753906 30.371094 13.191406 L 31.003906 13.691406 C 31.996094 14.027344 32.253906 12.75 32.097656 11.851562 C 31.898438 11.085938 30.339844 9.417969 29.796875 8.992188 C 27.285156 7.035156 24.726562 6.894531 22.101562 8.847656 C 21.53125 9.273438 19.6875 10.878906 19.605469 11.640625 " data-index="4"></path>
<path style=" stroke:none;fill-rule:evenodd;fill:rgb(40.000001%,67.843139%,21.176471%);fill-opacity:1;" d="M 20.390625 21.050781 L 28.976562 21.023438 C 28.675781 21.386719 29.054688 21.210938 28.429688 21.308594 L 26.9375 21.386719 L 23.527344 21.382812 C 23.460938 21.535156 23.457031 22.914062 23.472656 23.238281 C 23.488281 23.515625 23.464844 23.378906 23.542969 23.503906 L 23.6875 23.671875 C 23.691406 23.660156 23.722656 23.699219 23.726562 23.71875 C 23.644531 23.699219 23.417969 23.699219 23.351562 23.714844 C 23.03125 23.800781 23.472656 23.609375 23.128906 23.808594 L 22.886719 24 C 23.6875 24.003906 23.460938 23.835938 23.472656 24.804688 C 23.476562 25.128906 23.535156 25.835938 23.441406 26.214844 L 29.65625 26.234375 C 29.503906 24.976562 29.675781 23.566406 29.628906 22.625 C 29.605469 22.144531 29.566406 21.449219 29.769531 21.054688 C 30.054688 21.214844 30.875 21.125 31.285156 21.023438 C 31.425781 20.613281 31.304688 20.9375 31.195312 20.808594 L 20.480469 20.804688 C 20.375 20.949219 20.378906 20.714844 20.390625 21.050781 " data-index="5"></path>
<path style=" stroke:none;fill-rule:evenodd;fill:rgb(29.019609%,49.019608%,16.078432%);fill-opacity:1;" d="M 36.316406 26.296875 L 33.335938 26.222656 C 33.535156 25.941406 33.371094 24.222656 33.359375 24.203125 C 34.058594 23.84375 33.980469 24.214844 34.65625 23.691406 C 35.046875 23.390625 34.957031 23.597656 35.429688 23.527344 C 35.921875 23.453125 35.789062 23.265625 36.183594 23.207031 C 36.359375 23.457031 36.261719 24.625 36.257812 24.769531 C 36.234375 25.332031 36.25 25.742188 36.316406 26.296875 Z M 31.285156 21.023438 C 30.875 21.125 30.054688 21.214844 29.769531 21.054688 C 29.566406 21.449219 29.605469 22.144531 29.628906 22.625 C 29.675781 23.566406 29.503906 24.976562 29.65625 26.234375 L 23.441406 26.214844 L 23.414062 26.25 L 23.714844 26.347656 L 30.179688 26.328125 C 32.394531 26.300781 34.550781 26.386719 36.792969 26.328125 L 36.855469 20.84375 C 36.386719 21.242188 36.785156 21.183594 36.480469 22.136719 C 36.082031 23.386719 35.386719 23.261719 34.800781 23.351562 C 34.367188 23.421875 33.835938 24.039062 33.023438 23.660156 C 32.75 23.53125 32.816406 23.460938 32.578125 23.425781 C 32.167969 23.367188 31.929688 23.609375 31.363281 23.296875 C 30.355469 22.738281 31.160156 21.726562 31.285156 21.023438 " data-index="6"></path>
<path style=" stroke:none;fill-rule:evenodd;fill:rgb(27.058825%,47.058824%,14.901961%);fill-opacity:1;" d="M 17.4375 26.261719 L 15.390625 26.191406 C 15.433594 25.851562 15.390625 25.664062 15.390625 25.390625 C 15.378906 22.238281 15.261719 23.414062 16.441406 23.535156 C 17.914062 23.683594 17.28125 24.695312 17.4375 26.261719 Z M 17.4375 26.261719 C 17.734375 26.421875 20.039062 26.332031 20.75 26.332031 C 21.019531 26.332031 21.714844 26.378906 21.933594 26.335938 L 22.125 26.261719 L 21.117188 26.230469 C 21.230469 25.910156 21.175781 25.511719 21.171875 25.136719 C 21.171875 25.117188 21.171875 25.089844 21.171875 25.074219 C 21.171875 25.054688 21.171875 25.027344 21.171875 25.007812 L 21.175781 24.824219 C 21.167969 24.371094 21.242188 25.273438 21.164062 24.644531 C 21.125 24.328125 20.980469 24.417969 20.5 24.46875 C 20.398438 24.480469 20.324219 24.484375 20.238281 24.488281 L 19.984375 24.515625 C 19.921875 24.523438 19.792969 24.5625 19.785156 24.5625 C 19.582031 24.59375 19.894531 24.679688 19.628906 24.558594 C 19.355469 24.4375 19.519531 24.566406 19.53125 24.449219 C 20.171875 24.238281 20.5625 24.273438 20.917969 24.1875 C 21.3125 24.089844 21.054688 24.195312 21.3125 24.019531 C 21.152344 23.714844 21.179688 23.910156 21.171875 23.410156 C 21.160156 22.867188 21.21875 21.542969 21.132812 21.246094 L 22.109375 21.359375 C 22.261719 21.304688 26.175781 21.386719 26.9375 21.386719 L 28.429688 21.308594 C 29.054688 21.210938 28.675781 21.386719 28.976562 21.023438 L 20.390625 21.050781 C 20.550781 21.679688 21.238281 22.652344 20.421875 23.230469 C 19.976562 23.542969 19.679688 23.40625 19.183594 23.441406 C 18.652344 23.480469 18.664062 23.851562 18.007812 23.765625 C 17.582031 23.714844 17.3125 23.4375 17.003906 23.359375 C 16.523438 23.238281 16.507812 23.476562 15.886719 23.078125 C 14.882812 22.429688 15.371094 21.429688 14.9375 20.929688 L 14.882812 26.289062 C 15.382812 26.410156 17.105469 26.449219 17.4375 26.261719 " data-index="7"></path>
<path style=" stroke:none;fill-rule:evenodd;fill:rgb(74.117649%,65.098041%,47.058824%);fill-opacity:1;" d="M 20.917969 17.164062 C 21.15625 16.851562 20.933594 16.671875 21.078125 16.25 L 21.148438 16.085938 C 21.257812 15.84375 21.160156 16.042969 21.21875 15.929688 C 21.53125 15.992188 21.484375 16.054688 21.800781 16.140625 C 21.941406 16.179688 22.238281 16.183594 22.246094 16.183594 C 22.015625 17.023438 21.882812 17.859375 22.195312 18.699219 C 22.203125 18.71875 22.214844 18.746094 22.222656 18.765625 C 22.285156 18.925781 22.316406 19.027344 22.460938 19.179688 C 22.632812 19.367188 22.898438 19.511719 23.179688 19.484375 C 22.996094 19.230469 21.683594 18.304688 22.441406 16.511719 C 22.617188 16.089844 23.042969 15.640625 23.617188 15.667969 C 24.367188 15.699219 24.507812 16.1875 24.800781 16.632812 C 24.816406 16.617188 24.839844 16.574219 24.847656 16.59375 C 24.855469 16.609375 24.886719 16.5625 24.894531 16.558594 L 26.398438 16.519531 C 26.410156 16.515625 26.4375 16.511719 26.449219 16.511719 C 26.457031 16.511719 26.484375 16.507812 26.492188 16.503906 C 26.507812 16.503906 26.535156 16.496094 26.566406 16.492188 C 26.71875 16.726562 26.546875 17.496094 26.210938 17.550781 C 25.941406 17.589844 25.195312 17.527344 25.003906 17.492188 C 25.003906 17.898438 25.015625 17.75 25.097656 17.84375 L 26.644531 17.820312 C 26.621094 16.382812 27.78125 14.765625 28.980469 16.136719 C 29.527344 16.757812 29.546875 18.378906 28.953125 19.007812 C 28.585938 19.398438 28.339844 19.113281 28.472656 19.707031 L 28.652344 19.621094 C 28.472656 19.582031 28.613281 19.679688 28.515625 19.492188 C 29.660156 19.316406 29.691406 17.558594 29.480469 16.667969 C 29.449219 16.539062 29.402344 16.382812 29.359375 16.1875 L 30.015625 16.078125 C 30.476562 15.980469 30.035156 16.011719 30.414062 16.019531 L 30.496094 16.207031 C 30.601562 16.59375 30.460938 17.667969 30.507812 17.925781 C 30.902344 17.4375 30.851562 16.191406 30.773438 15.5 C 30.5625 15.234375 30 14.910156 29.566406 14.726562 L 29.78125 15.621094 C 29.449219 15.488281 28.761719 14.621094 27.628906 15.34375 C 27.542969 15.496094 27.714844 15.53125 27.445312 15.429688 L 27.042969 15.867188 C 27.0625 15.292969 27.328125 14.691406 27.644531 14.28125 L 27.824219 14.050781 C 26.691406 13.511719 24.9375 13.867188 23.75 14.019531 C 24.007812 14.472656 24.371094 14.566406 24.585938 15.835938 C 24.300781 15.683594 23.691406 14.6875 22.503906 15.21875 L 21.8125 15.644531 L 22 14.808594 C 21.621094 14.902344 20.957031 15.234375 20.847656 15.589844 C 20.734375 15.964844 20.789062 16.785156 20.917969 17.164062 " data-index="8"></path>
<path style=" stroke:none;fill-rule:evenodd;fill:rgb(40.000001%,67.058825%,21.960784%);fill-opacity:1;" d="M 21.992188 41.167969 C 22.070312 40.921875 22.085938 38.207031 22.046875 37.671875 C 21.960938 36.535156 22.066406 34.078125 22.039062 32.644531 L 22.035156 30.476562 C 22.125 27.933594 22.023438 28.386719 21.261719 28.539062 C 21.121094 28.835938 21.21875 31.226562 21.203125 31.785156 L 21.179688 37.402344 C 21.210938 37.570312 21.21875 37.566406 21.222656 37.746094 C 21.238281 38.195312 21.046875 40.707031 21.304688 40.90625 C 21.519531 41.066406 21.710938 41.203125 21.992188 41.167969 " data-index="9"></path>
<path style=" stroke:none;fill-rule:evenodd;fill:rgb(97.254902%,97.254902%,97.254902%);fill-opacity:1;" d="M 23.957031 11.476562 C 24.105469 10.960938 24.746094 9.84375 25.039062 9.367188 L 25.835938 10.074219 C 26.117188 9.925781 26.296875 9.585938 26.609375 9.339844 L 27.769531 11.351562 C 27.476562 11.511719 27.296875 11.679688 26.960938 11.789062 L 26.484375 10.621094 C 26.363281 10.722656 26.289062 10.800781 26.117188 10.972656 C 25.878906 11.207031 26.035156 11.144531 25.722656 11.273438 C 25.632812 11.132812 25.570312 11.027344 25.457031 10.890625 C 25.238281 10.617188 25.378906 10.714844 25.074219 10.601562 L 24.621094 11.800781 Z M 23.527344 11.578125 L 23.757812 12.050781 C 24.347656 12.054688 25.054688 11.875 25.746094 11.863281 C 26.539062 11.847656 27.109375 11.949219 27.859375 12.066406 L 28.105469 11.5625 C 28.902344 7.859375 22.820312 7.742188 23.527344 11.578125 " data-index="10"></path>
<path style=" stroke:none;fill-rule:evenodd;fill:rgb(97.254902%,99.215686%,99.215686%);fill-opacity:1;" d="M 15.484375 21.621094 C 15.515625 21.625 15.554688 21.605469 15.570312 21.640625 L 15.871094 21.691406 C 16.195312 21.671875 16.058594 21.386719 16.28125 20.289062 C 16.308594 20.15625 16.3125 19.777344 16.324219 19.574219 C 16.730469 19.652344 16.976562 19.640625 16.917969 20.015625 C 16.660156 20.621094 16.691406 21.167969 16.777344 21.785156 L 17.304688 21.859375 C 17.324219 21.859375 17.351562 21.855469 17.371094 21.859375 C 17.386719 21.859375 17.414062 21.855469 17.433594 21.859375 C 17.453125 21.859375 17.480469 21.859375 17.5 21.859375 L 17.863281 21.890625 C 17.75 21.359375 17.902344 20.417969 18.15625 19.933594 C 18.332031 19.597656 18.003906 19.6875 18.4375 19.710938 C 18.457031 19.710938 18.972656 19.875 18.527344 20.324219 C 18.335938 20.792969 18.433594 21.402344 18.519531 21.855469 C 18.847656 21.96875 18.949219 21.949219 19.335938 21.882812 C 19.644531 21.828125 19.773438 21.652344 19.789062 21.25 C 20.09375 21.464844 19.855469 21.476562 19.984375 21.363281 L 19.898438 20.417969 C 19.714844 20.222656 19.878906 20.632812 19.785156 20.210938 C 19.949219 19.855469 19.882812 19.804688 20.152344 19.574219 C 19.875 19.117188 19 19.261719 18.589844 19.535156 C 18.5 19.234375 18.644531 19.308594 18.304688 19.175781 C 17.71875 18.941406 17.1875 19.414062 17.035156 19.449219 C 16.742188 19.511719 16.816406 19.355469 16.34375 19.414062 C 15.613281 19.507812 15.25 20.75 15.484375 21.621094 " data-index="11"></path>
<path style=" stroke:none;fill-rule:evenodd;fill:rgb(97.254902%,97.254902%,97.254902%);fill-opacity:1;" d="M 31.515625 19.589844 C 31.695312 19.863281 31.699219 19.714844 31.78125 19.980469 L 31.859375 20.53125 C 31.855469 20.785156 31.914062 20.648438 31.730469 20.8125 L 31.707031 20.996094 C 31.90625 21.230469 31.84375 21.339844 31.929688 21.707031 C 32.171875 21.8125 32.46875 21.949219 32.632812 21.933594 C 32.992188 21.898438 32.992188 21.589844 33.242188 21.359375 L 33.078125 20.015625 C 32.839844 19.769531 32.828125 19.925781 33.164062 19.785156 C 33.492188 19.644531 33.636719 20.070312 33.765625 20.515625 C 33.875 20.898438 33.855469 20.949219 33.859375 21.292969 C 33.867188 21.644531 33.832031 21.125 33.863281 21.480469 C 33.890625 21.757812 33.933594 21.785156 33.957031 21.835938 C 34.179688 21.863281 34.269531 21.925781 34.5 21.855469 C 34.695312 21.796875 34.605469 21.859375 34.773438 21.644531 L 34.945312 21.386719 L 34.8125 20.039062 C 34.703125 19.945312 34.628906 20.257812 34.71875 19.734375 C 35.144531 19.609375 35.320312 19.628906 35.460938 20.5625 L 35.558594 21.136719 C 35.558594 21.152344 35.558594 21.066406 35.570312 21.316406 C 35.578125 21.539062 35.574219 21.585938 35.558594 21.695312 C 35.871094 21.746094 35.65625 21.773438 35.84375 21.703125 C 36.136719 21.597656 35.863281 21.582031 36.199219 21.625 C 36.429688 20.765625 36.058594 19.496094 35.328125 19.40625 C 34.921875 19.355469 34.820312 19.5 34.703125 19.488281 C 34.5625 19.476562 34.175781 19.011719 33.523438 19.132812 C 33.070312 19.21875 33.179688 19.28125 33.082031 19.53125 C 32.667969 19.238281 31.808594 19.128906 31.515625 19.589844 " data-index="12"></path>
<path style=" stroke:none;fill-rule:evenodd;fill:rgb(40.000001%,67.058825%,21.960784%);fill-opacity:1;" d="M 36.316406 26.296875 C 36.25 25.742188 36.234375 25.332031 36.257812 24.769531 C 36.261719 24.625 36.359375 23.457031 36.183594 23.207031 C 35.789062 23.265625 35.921875 23.453125 35.429688 23.527344 C 34.957031 23.597656 35.046875 23.390625 34.65625 23.691406 C 33.980469 24.214844 34.058594 23.84375 33.359375 24.203125 C 33.371094 24.222656 33.535156 25.941406 33.335938 26.222656 L 36.316406 26.296875 " data-index="13"></path>
<path style=" stroke:none;fill-rule:evenodd;fill:rgb(29.019609%,49.019608%,16.078432%);fill-opacity:1;" d="M 22.109375 21.359375 C 22.007812 21.636719 22.050781 21.761719 22.054688 21.964844 C 22.054688 21.984375 22.054688 22.011719 22.054688 22.027344 C 22.054688 22.050781 22.054688 22.1875 22.054688 22.214844 C 22.046875 22.445312 22.039062 22.703125 22.046875 23.019531 C 22.078125 24.261719 21.503906 23.539062 21.3125 24.019531 C 21.359375 24.058594 21.269531 24.0625 21.507812 24.078125 C 21.53125 24.078125 21.597656 24.074219 21.621094 24.070312 C 21.828125 24.050781 22.03125 23.980469 22.234375 23.921875 C 22.007812 24.449219 22.035156 24.261719 22.03125 24.796875 C 22.03125 25.230469 21.96875 25.929688 22.125 26.261719 C 22.558594 26.382812 23.03125 26.402344 23.414062 26.25 L 23.441406 26.214844 C 23.535156 25.835938 23.476562 25.128906 23.472656 24.804688 C 23.460938 23.835938 23.6875 24.003906 22.886719 24 L 23.128906 23.808594 C 23.472656 23.609375 23.03125 23.800781 23.351562 23.714844 C 23.417969 23.699219 23.644531 23.699219 23.726562 23.71875 C 23.722656 23.699219 23.691406 23.660156 23.6875 23.671875 L 23.542969 23.503906 C 23.464844 23.378906 23.488281 23.515625 23.472656 23.238281 C 23.457031 22.914062 23.460938 21.535156 23.527344 21.382812 L 26.9375 21.386719 C 26.175781 21.386719 22.261719 21.304688 22.109375 21.359375 " data-index="14"></path>
<path style=" stroke:none;fill-rule:evenodd;fill:rgb(40.000001%,67.058825%,21.960784%);fill-opacity:1;" d="M 17.957031 37.804688 C 17.90625 37.367188 17.90625 32.789062 17.910156 32.101562 C 17.914062 31.515625 17.847656 30.660156 17.902344 30.273438 C 17.550781 30.378906 17.167969 30.847656 16.976562 31.101562 C 16.761719 31.386719 16.824219 31.410156 16.835938 31.925781 C 16.871094 33.351562 16.796875 33.578125 16.902344 35.046875 C 16.925781 35.390625 17.09375 36.207031 17.214844 36.570312 C 17.265625 36.71875 17.214844 36.578125 17.273438 36.726562 C 17.363281 36.945312 17.628906 37.652344 17.957031 37.804688 " data-index="15"></path>
<path style=" stroke:none;fill-rule:evenodd;fill:rgb(50.980395%,10.980392%,10.980392%);fill-opacity:1;" d="M 21.214844 14.78125 C 22.632812 14.292969 22.953125 13.664062 25.371094 13.511719 C 26.277344 13.453125 27.089844 13.53125 27.917969 13.753906 C 28.617188 13.9375 29.253906 14.285156 29.914062 14.507812 C 29.964844 13.917969 29.761719 13.773438 29.355469 13.585938 C 28.121094 13.027344 26.746094 12.855469 25.371094 12.882812 C 24.25 12.910156 21.015625 13.296875 21.214844 14.78125 " data-index="16"></path>
<path style=" stroke:none;fill-rule:evenodd;fill:rgb(92.941177%,83.92157%,65.882355%);fill-opacity:1;" d="M 26.769531 18.761719 C 26.460938 19.515625 24.949219 19.429688 24.886719 18.84375 C 24.824219 18.214844 26.394531 18.074219 26.769531 18.761719 Z M 23.613281 19.292969 C 23.683594 19.699219 23.605469 19.65625 24.605469 20.046875 C 24.878906 20.152344 25.0625 20.117188 25.25 20.128906 C 25.925781 20.179688 25.574219 20.210938 26.078125 20.164062 C 26.09375 20.160156 26.121094 20.160156 26.136719 20.160156 L 27.277344 19.96875 C 27.328125 19.949219 27.464844 19.878906 27.570312 19.820312 L 27.691406 19.753906 C 27.972656 19.582031 27.914062 19.625 28.023438 19.394531 C 27.902344 17.773438 24.132812 17.613281 23.613281 19.292969 " data-index="17"></path>
<path style=" stroke:none;fill-rule:evenodd;fill:rgb(40.000001%,67.843139%,21.176471%);fill-opacity:1;" d="M 17.4375 26.261719 C 17.28125 24.695312 17.914062 23.683594 16.441406 23.535156 C 15.261719 23.414062 15.378906 22.238281 15.390625 25.390625 C 15.390625 25.664062 15.433594 25.851562 15.390625 26.191406 L 17.4375 26.261719 " data-index="18"></path>
<path style=" stroke:none;fill-rule:evenodd;fill:rgb(72.941178%,16.862746%,16.078432%);fill-opacity:1;" d="M 20.035156 15.5 C 20.113281 15.246094 19.921875 15.199219 20.179688 14.757812 C 20.316406 14.527344 20.546875 14.332031 20.710938 14.1875 C 21.972656 13.082031 24.046875 12.691406 25.835938 12.695312 C 27.1875 12.699219 28.453125 12.945312 29.515625 13.4375 C 29.910156 13.617188 30.621094 14.050781 30.875 14.277344 C 31.335938 14.683594 31.496094 14.929688 31.597656 15.71875 C 32.152344 14.699219 29.460938 12.191406 26.023438 12.148438 C 24.492188 12.132812 23.242188 12.453125 22.078125 12.988281 C 21.253906 13.371094 19.621094 14.453125 20.035156 15.5 " data-index="19"></path>
<path style=" stroke:none;fill-rule:evenodd;fill:rgb(74.901962%,16.078432%,12.941177%);fill-opacity:1;" d="M 23.957031 11.476562 L 24.621094 11.800781 L 25.074219 10.601562 C 25.378906 10.714844 25.238281 10.617188 25.457031 10.890625 C 25.570312 11.027344 25.632812 11.132812 25.722656 11.273438 C 26.035156 11.144531 25.878906 11.207031 26.117188 10.972656 C 26.289062 10.800781 26.363281 10.722656 26.484375 10.621094 L 26.960938 11.789062 C 27.296875 11.679688 27.476562 11.511719 27.769531 11.351562 L 26.609375 9.339844 C 26.296875 9.585938 26.117188 9.925781 25.835938 10.074219 L 25.039062 9.367188 C 24.746094 9.84375 24.105469 10.960938 23.957031 11.476562 " data-index="20"></path>
<path style=" stroke:none;fill-rule:evenodd;fill:rgb(50.980395%,10.980392%,10.980392%);fill-opacity:1;" d="M 31.003906 13.691406 C 31.316406 14.25 31.765625 14.507812 31.933594 15.046875 C 32.078125 15.527344 31.902344 15.605469 31.886719 15.890625 C 31.875 16.074219 32.046875 16.507812 32.148438 16.734375 C 33.601562 15.941406 33.042969 12.710938 32.097656 11.851562 C 32.253906 12.75 31.996094 14.027344 31.003906 13.691406 " data-index="21"></path>
<path style=" stroke:none;fill-rule:evenodd;fill:rgb(50.980395%,10.980392%,10.980392%);fill-opacity:1;" d="M 20.402344 13.695312 C 20.375 13.703125 20.339844 13.707031 20.316406 13.707031 C 20.292969 13.707031 20.257812 13.714844 20.230469 13.714844 C 20.003906 13.714844 19.882812 13.671875 19.722656 13.519531 C 19.089844 12.917969 19.460938 12.078125 19.605469 11.640625 C 18.699219 12.195312 17.960938 15.699219 19.464844 16.632812 C 19.480469 16.609375 19.496094 16.546875 19.503906 16.5625 L 19.632812 16.28125 C 20.074219 15.277344 19.25 15.289062 19.902344 14.390625 C 20.148438 14.050781 20.183594 14.125 20.402344 13.695312 " data-index="22"></path>
<path style=" stroke:none;fill-rule:evenodd;fill:rgb(92.941177%,83.92157%,65.882355%);fill-opacity:1;" d="M 20.917969 17.164062 C 21.050781 17.796875 21.121094 18.371094 20.84375 18.910156 L 20.839844 19.300781 C 21.136719 19.582031 20.851562 19.507812 21.222656 19.542969 L 21.464844 18.683594 C 22.042969 19.15625 21.929688 19.492188 23.066406 19.714844 C 23.148438 19.609375 23.148438 19.753906 23.179688 19.484375 C 22.898438 19.511719 22.632812 19.367188 22.460938 19.179688 C 22.316406 19.027344 22.285156 18.925781 22.222656 18.765625 C 22.214844 18.746094 22.203125 18.71875 22.195312 18.699219 C 21.882812 17.859375 22.015625 17.023438 22.246094 16.183594 C 22.238281 16.183594 21.941406 16.179688 21.800781 16.140625 C 21.484375 16.054688 21.53125 15.992188 21.21875 15.929688 C 21.160156 16.042969 21.257812 15.84375 21.148438 16.085938 L 21.078125 16.25 C 20.933594 16.671875 21.15625 16.851562 20.917969 17.164062 " data-index="23"></path>
<path style=" stroke:none;fill-rule:evenodd;fill:rgb(92.941177%,83.92157%,65.882355%);fill-opacity:1;" d="M 28.652344 19.621094 C 29.316406 19.648438 29.855469 19.066406 30.085938 18.695312 L 30.367188 19.230469 L 30.554688 19.683594 C 30.527344 19.371094 30.570312 19.25 30.835938 19.027344 C 30.617188 18.589844 30.574219 18.585938 30.507812 17.925781 C 30.460938 17.667969 30.601562 16.59375 30.496094 16.207031 L 30.414062 16.019531 C 30.035156 16.011719 30.476562 15.980469 30.015625 16.078125 L 29.359375 16.1875 C 29.402344 16.382812 29.449219 16.539062 29.480469 16.667969 C 29.691406 17.558594 29.660156 19.316406 28.515625 19.492188 C 28.613281 19.679688 28.472656 19.582031 28.652344 19.621094 " data-index="24"></path>
<path style=" stroke:none;fill-rule:evenodd;fill:rgb(74.901962%,83.137256%,90.980393%);fill-opacity:1;" d="M 33.078125 20.015625 L 33.292969 19.984375 C 33.351562 20.59375 34.007812 21.734375 32.898438 23.074219 C 34.019531 24.058594 34.945312 22.515625 34.945312 21.386719 L 34.773438 21.644531 C 34.605469 21.859375 34.695312 21.796875 34.5 21.855469 C 34.269531 21.925781 34.179688 21.863281 33.957031 21.835938 C 33.933594 21.785156 33.890625 21.757812 33.863281 21.480469 C 33.832031 21.125 33.867188 21.644531 33.859375 21.292969 C 33.855469 20.949219 33.875 20.898438 33.765625 20.515625 C 33.636719 20.070312 33.492188 19.644531 33.164062 19.785156 C 32.828125 19.925781 32.839844 19.769531 33.078125 20.015625 " data-index="25"></path>
<path style=" stroke:none;fill-rule:evenodd;fill:rgb(74.901962%,83.137256%,90.980393%);fill-opacity:1;" d="M 16.777344 21.785156 C 16.890625 22.761719 17.851562 24.019531 18.773438 23.082031 C 18.238281 22.304688 17.800781 21.148438 18.449219 20.019531 C 18.597656 20.222656 18.523438 19.960938 18.527344 20.324219 C 18.972656 19.875 18.457031 19.710938 18.4375 19.710938 C 18.003906 19.6875 18.332031 19.597656 18.15625 19.933594 C 17.902344 20.417969 17.75 21.359375 17.863281 21.890625 L 17.5 21.859375 C 17.480469 21.859375 17.453125 21.859375 17.433594 21.859375 C 17.414062 21.855469 17.386719 21.859375 17.371094 21.859375 C 17.351562 21.855469 17.324219 21.859375 17.304688 21.859375 L 16.777344 21.785156 " data-index="26"></path>
<path style=" stroke:none;fill-rule:evenodd;fill:rgb(74.117649%,65.098041%,47.058824%);fill-opacity:1;" d="M 28.023438 19.394531 C 27.914062 19.625 27.972656 19.582031 27.691406 19.753906 L 27.570312 19.820312 C 27.464844 19.878906 27.328125 19.949219 27.277344 19.96875 L 26.136719 20.160156 C 26.121094 20.160156 26.09375 20.160156 26.078125 20.164062 C 25.574219 20.210938 25.925781 20.179688 25.25 20.128906 C 25.0625 20.117188 24.878906 20.152344 24.605469 20.046875 C 23.605469 19.65625 23.683594 19.699219 23.613281 19.292969 C 23.382812 19.714844 23.433594 20.050781 23.609375 20.496094 L 28.027344 20.5 C 28.148438 20.070312 28.28125 19.714844 28.023438 19.394531 " data-index="27"></path>
<path style=" stroke:none;fill-rule:evenodd;fill:rgb(40.000001%,67.058825%,21.960784%);fill-opacity:1;" d="M 22.125 26.261719 C 21.96875 25.929688 22.03125 25.230469 22.03125 24.796875 C 22.035156 24.261719 22.007812 24.449219 22.234375 23.921875 C 22.03125 23.980469 21.828125 24.050781 21.621094 24.070312 C 21.597656 24.074219 21.53125 24.078125 21.507812 24.078125 C 21.269531 24.0625 21.359375 24.058594 21.3125 24.019531 C 21.054688 24.195312 21.3125 24.089844 20.917969 24.1875 C 20.5625 24.273438 20.171875 24.238281 19.53125 24.449219 C 19.519531 24.566406 19.355469 24.4375 19.628906 24.558594 C 19.894531 24.679688 19.582031 24.59375 19.785156 24.5625 C 19.792969 24.5625 19.921875 24.523438 19.984375 24.515625 L 20.238281 24.488281 C 20.324219 24.484375 20.398438 24.480469 20.5 24.46875 C 20.980469 24.417969 21.125 24.328125 21.164062 24.644531 C 21.242188 25.273438 21.167969 24.371094 21.175781 24.824219 L 21.171875 25.007812 C 21.171875 25.027344 21.171875 25.054688 21.171875 25.074219 C 21.171875 25.089844 21.171875 25.117188 21.171875 25.136719 C 21.175781 25.511719 21.230469 25.910156 21.117188 26.230469 L 22.125 26.261719 " data-index="28"></path>
<path style=" stroke:none;fill-rule:evenodd;fill:rgb(72.156864%,81.960785%,92.156863%);fill-opacity:1;" d="M 33.242188 21.359375 C 32.992188 21.589844 32.992188 21.898438 32.632812 21.933594 C 32.46875 21.949219 32.171875 21.8125 31.929688 21.707031 C 31.84375 21.339844 31.90625 21.230469 31.707031 20.996094 C 31.558594 21.484375 31.207031 22.164062 31.277344 22.652344 C 31.582031 23.140625 32.167969 23.285156 32.632812 22.890625 C 33.015625 22.566406 33.195312 21.996094 33.242188 21.359375 " data-index="29"></path>
<path style=" stroke:none;fill-rule:evenodd;fill:rgb(29.019609%,21.176471%,10.980392%);fill-opacity:1;" d="M 31.808594 18.917969 C 31.863281 17.617188 31.921875 16.695312 31.226562 15.859375 C 31.09375 16.011719 30.980469 17.3125 30.863281 17.921875 C 30.789062 18.292969 30.773438 18.648438 31.089844 18.796875 C 31.371094 18.929688 31.496094 18.785156 31.527344 18.78125 C 31.53125 18.78125 31.554688 18.777344 31.558594 18.777344 L 31.753906 18.882812 C 31.761719 18.890625 31.785156 18.914062 31.808594 18.917969 " data-index="30"></path>
<path style=" stroke:none;fill-rule:evenodd;fill:rgb(40.000001%,67.058825%,21.960784%);fill-opacity:1;" d="M 21.3125 24.019531 C 21.503906 23.539062 22.078125 24.261719 22.046875 23.019531 C 22.039062 22.703125 22.046875 22.445312 22.054688 22.214844 C 22.054688 22.1875 22.054688 22.050781 22.054688 22.027344 C 22.054688 22.011719 22.054688 21.984375 22.054688 21.964844 C 22.050781 21.761719 22.007812 21.636719 22.109375 21.359375 L 21.132812 21.246094 C 21.21875 21.542969 21.160156 22.867188 21.171875 23.410156 C 21.179688 23.910156 21.152344 23.714844 21.3125 24.019531 " data-index="31"></path>
<path style=" stroke:none;fill-rule:evenodd;fill:rgb(36.862746%,21.960784%,10.980392%);fill-opacity:1;" d="M 19.847656 18.921875 L 20.199219 19.027344 C 20.203125 18.996094 20.125 18.832031 20.089844 18.652344 C 20.300781 18.730469 20.421875 18.746094 20.65625 18.675781 C 20.804688 18.132812 20.730469 17.800781 20.609375 17.28125 C 20.484375 16.738281 20.542969 16.308594 20.449219 15.816406 C 19.710938 16.445312 19.703125 17.742188 19.847656 18.921875 " data-index="32"></path>
<path style=" stroke:none;fill-rule:evenodd;fill:rgb(72.156864%,81.960785%,92.156863%);fill-opacity:1;" d="M 18.519531 21.855469 C 18.785156 23.265625 19.535156 23.175781 20.34375 22.894531 C 20.449219 22.34375 20.445312 21.804688 19.984375 21.363281 C 19.855469 21.476562 20.09375 21.464844 19.789062 21.25 C 19.773438 21.652344 19.644531 21.828125 19.335938 21.882812 C 18.949219 21.949219 18.847656 21.96875 18.519531 21.855469 " data-index="33"></path>
<path style=" stroke:none;fill-rule:evenodd;fill:rgb(97.254902%,97.254902%,97.254902%);fill-opacity:1;" d="M 23.359375 19.070312 C 23.308594 18.34375 22.414062 16.75 24.054688 16.179688 C 24.070312 16.175781 24.113281 16.179688 24.125 16.152344 C 24.136719 16.121094 24.175781 16.132812 24.195312 16.117188 C 22.066406 15.019531 22.113281 19.199219 23.359375 19.070312 " data-index="34"></path>
<path style=" stroke:none;fill-rule:evenodd;fill:rgb(97.254902%,97.254902%,97.254902%);fill-opacity:1;" d="M 27.335938 16.367188 C 27.894531 15.898438 28.347656 16.5625 28.484375 17.066406 C 28.691406 17.832031 28.546875 18.359375 28.246094 18.9375 C 28.335938 19.164062 28.183594 19.027344 28.449219 19.117188 C 30.230469 17.71875 28.28125 14.660156 27.335938 16.367188 " data-index="35"></path>
<path style=" stroke:none;fill-rule:evenodd;fill:rgb(74.901962%,83.137256%,90.980393%);fill-opacity:1;" d="M 15.484375 21.621094 C 15.578125 22.289062 15.953125 23.035156 16.746094 22.972656 C 16.886719 22.515625 16.539062 22.632812 16.4375 21.5625 C 16.359375 20.710938 16.597656 20.550781 16.6875 19.921875 L 16.917969 20.015625 C 16.976562 19.640625 16.730469 19.652344 16.324219 19.574219 C 16.3125 19.777344 16.308594 20.15625 16.28125 20.289062 C 16.058594 21.386719 16.195312 21.671875 15.871094 21.691406 L 15.570312 21.640625 C 15.554688 21.605469 15.515625 21.625 15.484375 21.621094 " data-index="36"></path>
<path style=" stroke:none;fill-rule:evenodd;fill:rgb(74.901962%,83.137256%,90.980393%);fill-opacity:1;" d="M 34.8125 20.039062 C 34.902344 19.902344 34.894531 19.992188 35.007812 19.925781 C 35.136719 21.164062 35.613281 20.867188 34.835938 22.910156 C 35.59375 23.195312 36.074219 22.324219 36.199219 21.625 C 35.863281 21.582031 36.136719 21.597656 35.84375 21.703125 C 35.65625 21.773438 35.871094 21.746094 35.558594 21.695312 C 35.574219 21.585938 35.578125 21.539062 35.570312 21.316406 C 35.558594 21.066406 35.558594 21.152344 35.558594 21.136719 L 35.460938 20.5625 C 35.320312 19.628906 35.144531 19.609375 34.71875 19.734375 C 34.628906 20.257812 34.703125 19.945312 34.8125 20.039062 " data-index="37"></path>
<path style=" stroke:none;fill-rule:evenodd;fill:rgb(92.941177%,83.92157%,65.882355%);fill-opacity:1;" d="M 24.800781 16.632812 L 25.003906 17.492188 C 25.195312 17.527344 25.941406 17.589844 26.210938 17.550781 C 26.546875 17.496094 26.71875 16.726562 26.566406 16.492188 C 26.535156 16.496094 26.507812 16.503906 26.492188 16.503906 C 26.484375 16.507812 26.457031 16.511719 26.449219 16.511719 C 26.4375 16.511719 26.410156 16.515625 26.398438 16.519531 L 24.894531 16.558594 C 24.886719 16.5625 24.855469 16.609375 24.847656 16.59375 C 24.839844 16.574219 24.816406 16.617188 24.800781 16.632812 " data-index="38"></path>
<path style=" stroke:none;fill-rule:evenodd;fill:rgb(23.137255%,41.176471%,69.01961%);fill-opacity:1;" d="M 23.359375 19.070312 L 23.695312 18.589844 C 23.554688 18.238281 23.417969 17.933594 23.441406 17.492188 L 23.707031 17.304688 C 23.449219 17.316406 23.78125 17.359375 23.367188 17.25 L 23.414062 17.03125 C 23.433594 17.019531 23.460938 16.996094 23.472656 16.992188 C 23.6875 16.925781 23.546875 16.957031 23.710938 16.980469 C 24.460938 16.296875 24.617188 17.671875 24.621094 17.675781 C 24.625 17.703125 24.632812 17.726562 24.640625 17.75 L 24.738281 17.957031 C 24.777344 17.128906 24.578125 16.589844 24.195312 16.117188 C 24.175781 16.132812 24.136719 16.121094 24.125 16.152344 C 24.113281 16.179688 24.070312 16.175781 24.054688 16.179688 C 22.414062 16.75 23.308594 18.34375 23.359375 19.070312 " data-index="39"></path>
<path style=" stroke:none;fill-rule:evenodd;fill:rgb(23.137255%,41.176471%,69.01961%);fill-opacity:1;" d="M 27.335938 16.367188 C 27.320312 16.386719 27.292969 16.390625 27.285156 16.429688 C 27.273438 16.476562 27.058594 16.609375 26.96875 17.050781 C 26.949219 17.160156 26.910156 17.464844 26.902344 17.546875 C 26.882812 17.75 26.871094 17.792969 26.945312 17.933594 C 27.03125 17.789062 27.015625 17.714844 27.054688 17.503906 C 27.164062 16.933594 27.496094 16.570312 27.914062 16.953125 L 28.246094 17.003906 C 28.203125 17.421875 28.339844 17.277344 27.960938 17.316406 L 28.203125 17.464844 C 28.210938 18.226562 28.101562 18.113281 27.96875 18.667969 L 28.246094 18.9375 C 28.546875 18.359375 28.691406 17.832031 28.484375 17.066406 C 28.347656 16.5625 27.894531 15.898438 27.335938 16.367188 " data-index="40"></path>
<path style=" stroke:none;fill-rule:evenodd;fill:rgb(97.254902%,97.254902%,97.254902%);fill-opacity:1;" d="M 26.769531 18.761719 C 26.394531 18.074219 24.824219 18.214844 24.886719 18.84375 C 24.949219 19.429688 26.460938 19.515625 26.769531 18.761719 " data-index="41"></path>
<path style=" stroke:none;fill-rule:evenodd;fill:rgb(92.941177%,83.92157%,65.882355%);fill-opacity:1;" d="M 18.375 18.722656 C 18.46875 18.574219 18.386719 18.496094 18.414062 18.222656 C 18.59375 17.765625 18.550781 17.828125 19.027344 17.632812 L 19.242188 17.621094 C 19.148438 17.421875 19.21875 17.46875 19.230469 17.277344 C 19.25 16.929688 19.253906 17.257812 19.179688 16.847656 C 18.976562 16.707031 19.074219 16.746094 18.816406 16.628906 C 17.984375 16.921875 17.980469 17.734375 18.101562 18.679688 C 18.371094 18.863281 18.164062 18.71875 18.375 18.722656 " data-index="42"></path>
<path style=" stroke:none;fill-rule:evenodd;fill:rgb(92.941177%,83.92157%,65.882355%);fill-opacity:1;" d="M 32.484375 16.933594 C 32.347656 17.390625 32.386719 17.234375 32.453125 17.640625 L 32.644531 17.636719 C 32.945312 17.785156 32.96875 17.734375 33.132812 17.992188 C 33.285156 18.183594 33.175781 17.71875 33.316406 18.308594 C 32.839844 18.40625 33.5 18.222656 33.113281 18.613281 C 33.242188 18.742188 32.949219 18.730469 33.296875 18.722656 C 33.386719 18.703125 33.527344 18.855469 33.585938 18.3125 C 33.664062 17.640625 33.542969 16.914062 32.855469 16.632812 C 32.578125 16.757812 32.632812 16.734375 32.484375 16.933594 " data-index="43"></path>
<path style=" stroke:none;fill-rule:evenodd;fill:rgb(54.901963%,10.196079%,10.980392%);fill-opacity:1;" d="M 20.757812 13.40625 C 21.070312 13.261719 21.132812 13.191406 21.4375 13.003906 C 22.140625 12.570312 23.199219 12.300781 23.757812 12.050781 L 23.527344 11.578125 L 22.414062 12.054688 C 22.390625 12.066406 22.273438 12.144531 22.25 12.160156 L 21.765625 12.421875 C 21.453125 12.605469 21.421875 12.726562 21.179688 12.933594 C 21.164062 12.945312 21.144531 12.964844 21.128906 12.976562 C 21.113281 12.988281 21.09375 13 21.078125 13.011719 C 20.800781 13.246094 20.90625 13.082031 20.757812 13.40625 " data-index="44"></path>
<path style=" stroke:none;fill-rule:evenodd;fill:rgb(54.901963%,10.196079%,10.980392%);fill-opacity:1;" d="M 27.859375 12.066406 C 28.308594 12.226562 28.730469 12.335938 29.164062 12.515625 C 29.609375 12.703125 29.867188 12.980469 30.371094 13.191406 C 30.113281 12.753906 29.988281 12.675781 29.679688 12.445312 C 28.808594 11.804688 29.621094 12.238281 28.5 11.804688 L 28.175781 11.617188 C 28.15625 11.605469 28.128906 11.582031 28.105469 11.5625 L 27.859375 12.066406 " data-index="45"></path>
<path style=" stroke:none;fill-rule:evenodd;fill:rgb(69.803923%,63.921571%,45.882353%);fill-opacity:1;" d="M 33.296875 18.722656 C 32.949219 18.730469 33.242188 18.742188 33.113281 18.613281 C 33.5 18.222656 32.839844 18.40625 33.316406 18.308594 C 33.175781 17.71875 33.285156 18.183594 33.132812 17.992188 C 33.136719 18.363281 33.144531 17.96875 32.691406 18.042969 C 32.496094 18.074219 32.457031 18.164062 32.253906 18.265625 L 32.765625 18.992188 C 32.988281 18.964844 32.941406 18.984375 33.085938 18.910156 C 33.390625 18.742188 33.207031 18.816406 33.296875 18.722656 " data-index="46"></path>
<path style=" stroke:none;fill-rule:evenodd;fill:rgb(69.803923%,63.921571%,45.882353%);fill-opacity:1;" d="M 18.414062 18.222656 C 18.386719 18.496094 18.46875 18.574219 18.375 18.722656 C 18.558594 18.917969 18.613281 18.960938 18.882812 18.992188 C 19.03125 18.746094 19.230469 18.476562 19.363281 18.28125 C 18.878906 17.894531 18.808594 18.027344 18.414062 18.222656 " data-index="47"></path>
<path style=" stroke:none;fill-rule:evenodd;fill:rgb(29.019609%,21.960784%,18.039216%);fill-opacity:1;" d="M 28.542969 20.027344 L 28.449219 20.34375 C 29.210938 20.355469 30.117188 19.859375 30.070312 19.144531 C 28.921875 20.210938 29.378906 19.625 28.542969 20.027344 " data-index="48"></path>
<path style=" stroke:none;fill-rule:evenodd;fill:rgb(29.019609%,21.960784%,18.039216%);fill-opacity:1;" d="M 23.234375 20.367188 C 23.015625 19.628906 22.820312 20.203125 21.984375 19.539062 L 21.632812 19.230469 C 21.617188 19.21875 21.585938 19.199219 21.566406 19.183594 C 21.6875 19.882812 22.484375 20.351562 23.234375 20.367188 " data-index="49"></path>
<path style=" stroke:none;fill-rule:evenodd;fill:rgb(69.803923%,63.921571%,45.882353%);fill-opacity:1;" d="M 30.367188 19.230469 C 30.425781 19.988281 30.421875 19.878906 30.195312 20.539062 C 30.625 20.339844 30.292969 20.679688 30.554688 20.214844 C 30.917969 19.582031 31.324219 19.265625 30.835938 19.027344 C 30.570312 19.25 30.527344 19.371094 30.554688 19.683594 L 30.367188 19.230469 " data-index="50"></path>
<path style=" stroke:none;fill-rule:evenodd;fill:rgb(29.019609%,21.960784%,18.039216%);fill-opacity:1;" d="M 27.445312 15.429688 C 27.714844 15.53125 27.542969 15.496094 27.628906 15.34375 C 27.285156 15.109375 28.433594 14.636719 29.328125 15.117188 C 29.203125 14.707031 28.691406 14.601562 28.328125 14.636719 C 27.921875 14.675781 27.554688 14.898438 27.347656 15.246094 L 27.445312 15.429688 " data-index="51"></path>
<path style=" stroke:none;fill-rule:evenodd;fill:rgb(70.980394%,78.039217%,83.92157%);fill-opacity:1;" d="M 31.730469 20.8125 C 31.914062 20.648438 31.855469 20.785156 31.859375 20.53125 L 31.78125 19.980469 C 31.699219 19.714844 31.695312 19.863281 31.515625 19.589844 C 31.207031 19.757812 31.054688 20.003906 30.957031 20.351562 C 31.488281 20.375 31.277344 20.308594 31.660156 20.09375 L 31.730469 20.8125 " data-index="52"></path>
<path style=" stroke:none;fill-rule:evenodd;fill:rgb(74.117649%,65.098041%,47.058824%);fill-opacity:1;" d="M 21.222656 19.542969 C 20.851562 19.507812 21.136719 19.582031 20.839844 19.300781 L 20.84375 18.910156 C 20.429688 19.121094 20.539062 19.292969 20.808594 19.707031 C 21.132812 20.203125 21.09375 20.371094 21.398438 20.492188 C 21.300781 20.121094 21.214844 20.042969 21.222656 19.542969 " data-index="53"></path>
<path style=" stroke:none;fill-rule:evenodd;fill:rgb(74.901962%,83.137256%,90.980393%);fill-opacity:1;" d="M 19.898438 20.417969 L 19.996094 20.289062 C 20.015625 20.265625 20.113281 20.117188 20.117188 20.109375 C 20.347656 20.324219 20.265625 20.347656 20.667969 20.371094 C 20.648438 20.019531 20.429688 19.753906 20.152344 19.574219 C 19.882812 19.804688 19.949219 19.855469 19.785156 20.210938 C 19.878906 20.632812 19.714844 20.222656 19.898438 20.417969 " data-index="54"></path>
<path style=" stroke:none;fill-rule:evenodd;fill:rgb(69.01961%,65.098041%,54.901963%);fill-opacity:1;" d="M 32.644531 17.636719 L 32.453125 17.640625 C 32.386719 17.234375 32.347656 17.390625 32.484375 16.933594 L 32.113281 17.058594 L 32.078125 17.972656 C 32.238281 17.878906 32.492188 17.765625 32.644531 17.636719 " data-index="55"></path>
<path style=" stroke:none;fill-rule:evenodd;fill:rgb(69.803923%,63.921571%,45.882353%);fill-opacity:1;" d="M 19.027344 17.632812 C 19.136719 17.742188 18.992188 17.648438 19.234375 17.800781 C 19.375 17.886719 19.386719 17.882812 19.496094 17.941406 L 19.519531 17.019531 L 19.179688 16.847656 C 19.253906 17.257812 19.25 16.929688 19.230469 17.277344 C 19.21875 17.46875 19.148438 17.421875 19.242188 17.621094 L 19.027344 17.632812 " data-index="56"></path>
<path style=" stroke:none;fill-rule:evenodd;fill:rgb(92.941177%,92.156863%,92.941177%);fill-opacity:1;" d="M 27.960938 17.316406 C 28.339844 17.277344 28.203125 17.421875 28.246094 17.003906 L 27.914062 16.953125 C 27.824219 17.296875 27.824219 17.082031 27.960938 17.316406 " data-index="57"></path>
<path style=" stroke:none;fill-rule:evenodd;fill:rgb(94.117647%,98.039216%,98.039216%);fill-opacity:1;" d="M 23.707031 17.304688 L 23.710938 16.980469 C 23.546875 16.957031 23.6875 16.925781 23.472656 16.992188 C 23.460938 16.996094 23.433594 17.019531 23.414062 17.03125 L 23.367188 17.25 C 23.78125 17.359375 23.449219 17.316406 23.707031 17.304688 " data-index="58"></path>
<path style=" stroke:none;fill-rule:evenodd;fill:rgb(69.01961%,65.098041%,54.901963%);fill-opacity:1;" d="M 32.144531 18.851562 C 32.199219 18.875 32.113281 18.914062 32.308594 18.902344 C 32.464844 18.894531 32.414062 18.878906 32.472656 18.851562 C 32.089844 18.570312 32.222656 18.777344 32.144531 18.851562 " data-index="59"></path>
</g>
</svg>